<?xml version="1.0" standalone="no"?>
<!DOCTYPE svg PUBLIC "-//W3C//DTD SVG 20010904//EN"
 "http://www.w3.org/TR/2001/REC-SVG-20010904/DTD/svg10.dtd">
<svg version="1.0" xmlns="http://www.w3.org/2000/svg"
 width="500.000000pt" height="500.000000pt" viewBox="0 0 500.000000 500.000000"
 preserveAspectRatio="xMidYMid meet">

<g transform="translate(0.000000,500.000000) scale(0.100000,-0.100000)"
fill="#000000" stroke="none">
<path d="M0 2500 l0 -2500 2500 0 2500 0 0 2500 0 2500 -2500 0 -2500 0 0
-2500z m2807 803 c4 -9 0 -49 -9 -90 l-15 -73 112 0 c163 0 236 -31 291 -126
44 -75 47 -111 23 -247 -25 -145 -31 -157 -69 -157 -23 0 -32 -7 -47 -37 -52
-108 -202 -111 -261 -5 l-23 41 -174 0 -173 0 -20 -37 c-55 -108 -201 -110
-260 -4 -23 41 -25 42 -77 42 -40 0 -54 4 -59 16 -11 29 13 44 69 44 47 0 54
3 59 23 8 34 59 77 100 87 71 16 158 -28 172 -87 6 -22 11 -23 85 -23 l78 0
10 38 c23 91 121 530 121 540 0 9 -87 12 -344 12 -308 0 -345 2 -350 16 -16
42 -2 44 386 44 335 0 369 -2 375 -17z m-592 -133 l0 -25 -138 -3 c-116 -2
-138 0 -143 13 -4 8 -4 22 0 30 5 13 27 15 143 13 l138 -3 0 -25z m0 -180 l0
-25 -168 -3 c-142 -2 -168 0 -173 13 -4 8 -4 22 0 30 5 13 31 15 173 13 l168
-3 0 -25z m-11 -146 c21 -8 21 -50 0 -58 -9 -3 -94 -6 -189 -6 -95 0 -180 3
-189 6 -19 7 -21 50 -3 57 18 8 362 8 381 1z m-755 -558 c29 -26 30 -110 1
-128 -18 -11 -18 -14 -3 -30 9 -10 18 -42 21 -73 l4 -55 -29 0 c-29 0 -31 3
-37 50 -5 34 -13 53 -26 60 -10 5 -62 10 -114 10 l-96 0 0 -60 0 -60 -30 0
-30 0 0 156 0 155 159 -3 c140 -3 162 -5 180 -22z m376 -123 c44 -81 82 -151
83 -155 2 -4 -10 -8 -27 -8 -24 0 -34 6 -43 25 -11 24 -13 25 -123 25 -110 0
-112 -1 -123 -25 -9 -19 -19 -25 -42 -25 -16 0 -30 3 -30 6 0 4 37 73 82 155
78 142 83 149 112 149 30 0 35 -7 111 -147z m467 119 c33 -32 33 -122 0 -154
-20 -21 -33 -23 -142 -26 l-120 -4 0 -49 c0 -46 -2 -49 -25 -49 l-25 0 0 156
0 155 145 -3 c135 -3 146 -5 167 -26z m168 -127 l0 -155 -25 0 -25 0 0 155 0
155 25 0 25 0 0 -155z m445 133 c60 -32 70 -52 70 -140 0 -75 -2 -81 -28 -103
-40 -36 -88 -45 -229 -45 l-128 0 0 156 0 156 143 -4 c105 -3 150 -8 172 -20z
m515 -133 l0 -155 -30 0 -30 0 0 155 0 155 30 0 30 0 0 -155z m305 32 l110
-122 3 123 3 122 24 0 25 0 0 -155 0 -155 -37 0 c-36 1 -45 8 -143 119 l-105
118 -3 -118 -3 -119 -29 0 -30 0 0 155 0 155 38 0 c35 -1 44 -9 147 -123z
m-445 -42 l0 -26 -117 3 c-114 3 -118 4 -121 26 -3 22 -2 22 117 22 l121 0 0
-25z m-1676 -331 c20 -19 20 -29 1 -48 -9 -9 -11 -17 -5 -21 5 -3 10 -11 10
-17 0 -6 -8 -4 -18 5 -24 22 -49 22 -55 0 -3 -10 -5 8 -6 40 -1 57 -1 57 28
57 16 0 37 -7 45 -16z m126 -34 c13 -27 20 -53 17 -56 -4 -4 -9 1 -13 10 -4 9
-17 16 -34 16 -17 0 -30 -7 -34 -16 -4 -9 -9 -14 -13 -10 -7 7 37 106 47 106
4 0 17 -22 30 -50z m140 35 c19 -23 7 -49 -28 -60 -17 -5 -32 -15 -32 -22 0
-7 -4 -13 -10 -13 -5 0 -10 25 -10 55 l0 55 34 0 c18 0 39 -7 46 -15z m70 -40
c0 -30 -4 -55 -10 -55 -5 0 -10 25 -10 55 0 30 5 55 10 55 6 0 10 -25 10 -55z
m125 49 c27 -11 38 -53 20 -80 -12 -19 -24 -24 -55 -24 l-40 0 0 55 c0 54 0
55 29 55 16 0 37 -3 46 -6z m159 -7 c21 -16 24 -60 6 -82 -16 -20 -64 -19 -84
1 -49 49 22 122 78 81z m131 2 c4 -6 -3 -9 -21 -7 -39 4 -42 -20 -4 -33 23 -9
30 -16 28 -33 -3 -24 -53 -35 -71 -17 -8 8 -3 10 20 5 45 -9 51 13 9 33 -38
18 -44 31 -24 51 15 15 55 16 63 1z m124 -20 l19 -31 17 32 c9 17 19 29 22 26
3 -3 -4 -20 -16 -39 -11 -19 -21 -43 -21 -53 -1 -11 -7 -2 -15 20 -7 21 -18
43 -24 49 -11 11 -15 27 -6 27 3 0 14 -14 24 -31z m226 22 c3 -6 -7 -9 -22 -8
-34 2 -39 -26 -6 -31 32 -5 49 -28 33 -47 -14 -16 -65 -21 -74 -6 -3 5 8 8 25
7 42 -1 48 19 9 32 -28 10 -40 38 -23 55 10 10 51 8 58 -2z m105 0 c-48 -8
-55 -40 -8 -43 l33 -1 -32 -4 c-24 -3 -33 -9 -33 -23 0 -14 9 -20 38 -23 l37
-4 -42 -1 -43 -2 0 55 0 55 43 -1 42 -2 -35 -6z m156 -3 c5 -8 0 -9 -16 -5
-32 8 -60 -9 -60 -37 0 -49 58 -62 72 -16 6 23 7 23 5 -5 -2 -25 -7 -31 -30
-33 -32 -4 -67 21 -67 47 0 31 30 61 60 61 16 0 32 -5 36 -12z m74 -39 c0 -74
56 -61 63 14 l4 42 1 -45 c2 -50 -10 -70 -43 -70 -12 0 -26 5 -33 12 -15 15
-16 102 -2 93 6 -3 10 -24 10 -46z m204 29 c8 -13 8 -23 -1 -36 -7 -12 -8 -24
-1 -35 5 -11 5 -17 0 -17 -6 0 -12 7 -16 15 -3 8 -15 15 -26 15 -11 0 -20 -7
-20 -15 0 -8 -4 -15 -10 -15 -5 0 -10 25 -10 56 l0 55 36 -3 c22 -2 42 -10 48
-20z m138 5 c38 -34 12 -93 -41 -93 -34 0 -51 17 -51 51 0 52 54 77 92 42z
m124 6 c4 -7 0 -9 -12 -5 -20 6 -56 -12 -39 -20 44 -19 60 -32 60 -49 0 -15
-8 -21 -29 -23 -16 -2 -33 1 -39 7 -8 8 -3 10 21 5 43 -9 45 20 2 35 -28 9
-40 37 -23 54 10 11 51 8 59 -4z"/>
<path d="M2766 3063 c-7 -25 -86 -380 -86 -387 0 -3 31 -6 68 -6 65 0 68 1 78
28 18 48 76 84 134 85 57 1 91 -19 128 -74 13 -19 27 -35 31 -37 5 -2 18 46
29 105 27 139 18 185 -45 245 -49 47 -91 58 -217 58 -101 0 -115 -2 -120 -17z"/>
<path d="M2250 2695 c-72 -77 30 -190 113 -125 45 36 44 102 -2 137 -28 22
-85 16 -111 -12z"/>
<path d="M2902 2697 c-49 -52 -12 -147 58 -147 37 0 90 47 90 80 0 29 -26 76
-45 84 -36 13 -82 6 -103 -17z"/>
<path d="M1170 2215 l0 -35 114 0 c122 0 144 8 131 50 -6 19 -14 20 -126 20
l-119 0 0 -35z"/>
<path d="M1698 2218 c-8 -13 -25 -42 -37 -65 l-21 -43 75 0 75 0 -32 58 c-42
76 -43 77 -60 50z"/>
<path d="M2030 2199 l0 -51 105 4 c116 3 127 9 123 63 l-3 30 -112 3 -113 3 0
-52z"/>
<path d="M2640 2149 l0 -102 115 5 c148 7 165 16 165 92 0 38 -6 61 -19 77
-18 22 -27 24 -140 27 l-121 4 0 -103z"/>
<path d="M1547 1814 c-4 -4 -7 -16 -7 -26 0 -13 8 -18 30 -18 23 0 30 4 30 20
0 11 -4 20 -9 20 -5 0 -16 2 -23 5 -8 3 -17 2 -21 -1z"/>
<path d="M1686 1784 c-9 -23 -8 -24 14 -24 11 0 20 2 20 4 0 12 -13 36 -20 36
-4 0 -11 -7 -14 -16z"/>
<path d="M1810 1795 c0 -20 5 -25 25 -25 29 0 36 34 9 44 -27 10 -34 7 -34
-19z"/>
<path d="M2010 1775 c0 -34 4 -45 16 -45 54 0 76 62 28 80 -40 16 -44 13 -44
-35z"/>
<path d="M2161 1801 c-37 -37 2 -86 49 -61 24 13 26 43 4 64 -20 21 -30 20
-53 -3z"/>
<path d="M3180 1795 c0 -20 5 -25 25 -25 29 0 36 34 9 44 -27 10 -34 7 -34
-19z"/>
<path d="M3316 1804 c-9 -8 -16 -22 -16 -29 0 -18 27 -45 45 -45 18 0 45 28
45 45 0 13 -37 45 -52 45 -3 0 -14 -7 -22 -16z"/>
</g>
</svg>
